#!OML:ASF F:\VICON\USERDATA\INSTALL\Justin_Nancy\Justin_Nancy.ASF
:FULLY-SPECIFIED
:DEGREES
94
root 0.732903 17.7241 -15.7118 4.75993 -3.00742 -0.506064
lowerback 4.37714 -0.0237877 -0.484573
upperback -0.724214 0.0226111 2.59432
thorax -3.20341 0.0442105 2.94732
lowerneck -15.7775 -4.3935 -10.5415
upperneck 20.2982 -4.77744 5.96269
head 9.41407 -2.40332 3.19664
rclavicle -3.77691e-015 -6.36111e-015
rhumerus -33.4576 -9.77935 -78.9994
rradius 33.0696
rwrist 4.78106
rhand -11.3149 12.8054
rfingers 7.12502
rthumb 14.7171 -16.6522
lclavicle -3.77691e-015 -6.36111e-015
lhumerus -34.6764 12.996 82.7469
lradius 30.1395
lwrist -5.28387
lhand -21.3516 17.7064
lfingers 7.12502
lthumb 5.03487 47.6266
rfemur -10.7371 4.82149 18.9579
rtibia 22.7846
rfoot -11.9536 -7.28045
rtoes 7.57465
lfemur -11.6436 -3.94972 -17.5138
ltibia 24.2769
lfoot -13.5303 9.06825
ltoes -2.48389
95
root 0.731672 17.7261 -15.7141 4.86344 -2.94989 -0.590851
lowerback 4.24325 -0.0439883 -0.390596
upperback -0.717586 0.000253567 2.62597
thorax -3.11991 0.0308569 2.92783
lowerneck -15.8266 -4.40127 -10.6285
upperneck 20.3331 -4.78114 6.04689
head 9.44016 -2.40229 3.2401
rclavicle 1.08338e-014 -2.3059e-014
rhumerus -33.428 -9.78684 -79.0176
rradius 33.1783
rwrist 4.8075
rhand -11.3332 12.9832
rfingers 7.12502
rthumb 14.6995 -16.4756
lclavicle 1.08338e-014 -2.3059e-014
lhumerus -34.605 12.9632 82.8139
lradius 30.2146
lwrist -5.17744
lhand -21.0522 18.4929
lfingers 7.12502
lthumb 5.3239 48.406
rfemur -10.8436 4.84908 19.0676
rtibia 22.7518
rfoot -11.8139 -7.3732
rtoes 7.32209
lfemur -11.7933 -4.02441 -17.382
ltibia 24.3401
lfoot -13.589 8.98338
ltoes -1.952
96
root 0.731218 17.7281 -15.7187 4.92301 -2.83285 -0.674077
lowerback 4.21409 -0.0859552 -0.262868
upperback -0.660751 -0.0501324 2.6381
thorax -3.04214 0.0024997 2.87115
lowerneck -16.1423 -4.42078 -10.6107
upperneck 20.4225 -4.77702 6.03222
head 9.52866 -2.39629 3.23022
rclavicle 1.14301e-015 1.74931e-014
rhumerus -33.2714 -9.77822 -79.0876
rradius 33.2666
rwrist 4.78209
rhand -11.3485 13.1528
rfingers 7.12502
rthumb 14.6848 -16.3072
lclavicle 1.14301e-015 1.74931e-014
lhumerus -34.4121 12.9819 82.8603
lradius 30.2225
lwrist -5.04003
lhand -20.8117 18.9482
lfingers 7.12502
lthumb 5.5562 48.8554
rfemur -10.8915 4.86293 19.1694
rtibia 22.7018
rfoot -11.7317 -7.51296
rtoes 7.24503
lfemur -11.9313 -4.12396 -17.2636
ltibia 24.4264
lfoot -13.5776 8.94377
ltoes -1.78698
97
root 0.729563 17.7264 -15.7248 4.90517 -2.86176 -0.703276
lowerback 4.29213 -0.0901114 -0.283564
upperback -0.665641 -0.0540357 2.69532
thorax -3.09097 0.00184716 2.943
lowerneck -16.1505 -4.3953 -10.6607
upperneck 20.449 -4.70993 5.95602
head 9.53316 -2.37753 3.22099
rclavicle -1.54058e-015 0
rhumerus -33.2636 -9.58132 -79.0839
rradius 33.3449
rwrist 4.66777
rhand -11.4452 13.4399
rfingers 7.12502
rthumb 14.5916 -16.0268
lclavicle -1.54058e-015 0
lhumerus -34.4304 12.9905 82.9455
lradius 30.2778
lwrist -4.88629
lhand -21.0819 18.41
lfingers 7.12502
lthumb 5.29523 48.3238
rfemur -10.8594 4.98721 19.211
rtibia 22.6214
rfoot -11.6249 -7.62643
rtoes 7.12817
lfemur -12.002 -4.10179 -17.2212
ltibia 24.5475
lfoot -13.6463 8.95474
ltoes -1.61198
98
root 0.729544 17.7238 -15.7271 4.8514 -2.92794 -0.75042
lowerback 4.30466 -0.0646084 -0.230457
upperback -0.653503 -0.0170421 2.70254
thorax -3.08746 0.019291 2.91795
lowerneck -16.11 -4.3867 -10.6743
upperneck 20.5358 -4.70435 5.96545
head 9.55617 -2.3768 3.22889
rclavicle -2.5842e-015 0
rhumerus -33.2785 -9.56554 -79.0759
rradius 33.3723
rwrist 4.67434
rhand -11.5362 13.589
rfingers 7.12502
rthumb 14.5039 -15.884
lclavicle -2.5842e-015 0
lhumerus -34.4018 12.8281 83.0185
lradius 30.2974
lwrist -4.73293
lhand -21.4899 18.1697
lfingers 7.12502
lthumb 4.90128 48.093
rfemur -10.7845 4.98656 19.2631
rtibia 22.5546
rfoot -11.5726 -7.55478
rtoes 6.9251
lfemur -11.99 -3.99528 -17.1867
ltibia 24.6416
lfoot -13.6781 8.96768
ltoes -1.81335
